# xmcd
#
# Track frame offsets: 
#        150
#        13107
#        23805
#        37784
#        50940
#        65656
#        77727
#        88852
#        103899
#        115997
#        125959
#        140302
#        151016
#        162608
#        173346
#        183909
#        195124
#        206745
#        218359
#        228610
#        240029
#        252189
#        262731
#        273739
#        285812
#        295898
#        305596
#        318546
#
# Disc length: 4388 seconds
#
# Revision: 0
# Processed by: cddbd v1.5.2PL0 Copyright (c) Steve Scherf et al.
# Submitted via: ExactAudioCopyFreeDBPlugin 1.0
#
DISCID=8511221c
DTITLE=Junior Wells - Junior's Wail - Singles As and Bs 1953-1961
DYEAR=2014
DGENRE=Blues
TTITLE0=Cut That Out
TTITLE1=Eagle Rock
TTITLE2=Hoodoo Man
TTITLE3=Junior's Wail
TTITLE4='Bout The Break Of Day
TTITLE5=Lord Lord (Lawdy Lawdy)
TTITLE6=Tomorrow Night
TTITLE7=So all Alone
TTITLE8=Two Headed Woman
TTITLE9=Lovey Dovey Lovely One
TTITLE10=I Could Cry (1957 Version)
TTITLE11=Cha Cha Cha In Blue
TTITLE12=Little By Little
TTITLE13=Come On In This House
TTITLE14=You Don't Care
TTITLE15=Prison Bars All Around Me
TTITLE16=Junior Wells and Earl Hooker - Galloping Horses And A Lazy Mule
TTITLE17=Junior Wells and Earl Hooker - Calling All Blues
TTITLE18=Messin' With The Kid
TTITLE19=Universal Rock
TTITLE20=I'm A Stranger
TTITLE21=The Things I'd Do For You
TTITLE22=You Sure Look Good To Me
TTITLE23=It Hurts Me Too
TTITLE24=So Tired
TTITLE25=Love Me
TTITLE26=I Could Cry (1961 Version)
TTITLE27=I Need Me A Car
EXTD=
EXTT0=
EXTT1=
EXTT2=
EXTT3=
EXTT4=
EXTT5=
EXTT6=
EXTT7=
EXTT8=
EXTT9=
EXTT10=
EXTT11=
EXTT12=
EXTT13=
EXTT14=
EXTT15=
EXTT16=
EXTT17=
EXTT18=
EXTT19=
EXTT20=
EXTT21=
EXTT22=
EXTT23=
EXTT24=
EXTT25=
EXTT26=
EXTT27=
PLAYORDER=
